HIERARCHY
ROOT Hips
{
	OFFSET -0.179506 -22.333345 2.821913
	CHANNELS 6 Xposition Yposition Zposition Zrotation Yrotation Xrotation 
	JOINT LeftUpLeg
	{
		OFFSET 6.951974 -9.140623 -0.681533
		CHANNELS 3 Zrotation Yrotation Xrotation
		JOINT LeftLeg
		{
			OFFSET 3.427654 -37.519855 -0.449580
			CHANNELS 3 Zrotation Yrotation Xrotation
			JOINT LeftFoot
			{
				OFFSET -1.359570 -39.796059 -4.369333
				CHANNELS 3 Zrotation Yrotation Xrotation
				JOINT LeftToe
				{
					OFFSET 2.635814 -5.579078 11.928840
					CHANNELS 3 Zrotation Yrotation Xrotation
					End Site
					{
						OFFSET 0.000000 0.000000 0.000000
					}
				}
			}
		}
	}
	JOINT RightUpLeg
	{
		OFFSET -6.767048 -9.052170 -0.431982
		CHANNELS 3 Zrotation Yrotation Xrotation
		JOINT RightLeg
		{
			OFFSET -3.829005 -38.256897 -0.885003
			CHANNELS 3 Zrotation Yrotation Xrotation
			JOINT RightFoot
			{
				OFFSET 1.577377 -39.841461 -4.231180
				CHANNELS 3 Zrotation Yrotation Xrotation
				JOINT RightToe
				{
					OFFSET -2.537174 -4.814398 12.334795
					CHANNELS 3 Zrotation Yrotation Xrotation
					End Site
					{
						OFFSET 0.000000 0.000000 0.000000
					}
				}
			}
		}
	}
	JOINT Spine
	{
		OFFSET -0.253288 10.896323 -2.669631
		CHANNELS 3 Zrotation Yrotation Xrotation
		JOINT Spine1
		{
			OFFSET 0.548704 13.518043 0.109247
			CHANNELS 3 Zrotation Yrotation Xrotation
			JOINT Spine2
			{
				OFFSET 0.145701 5.292222 2.542457
				CHANNELS 3 Zrotation Yrotation Xrotation
				JOINT Neck
				{
					OFFSET -0.277840 21.387037 -4.285703
					CHANNELS 3 Zrotation Yrotation Xrotation
					JOINT Head
					{
						OFFSET 0.515184 6.496960 5.134897
						CHANNELS 3 Zrotation Yrotation Xrotation
						End Site
						{
							OFFSET 0.000000 0.000000 0.000000
						}
					}
				}
				JOINT LeftShoulder
				{
					OFFSET 7.884473 12.174932 -3.408961
					CHANNELS 3 Zrotation Yrotation Xrotation
					JOINT LeftArm
					{
						OFFSET 9.097692 3.046888 -0.886815
						CHANNELS 3 Zrotation Yrotation Xrotation
						JOINT LeftForeArm
						{
							OFFSET 25.961220 -1.277207 -2.745643
							CHANNELS 3 Zrotation Yrotation Xrotation
							JOINT LeftHand
							{
								OFFSET 24.923361 0.898606 -0.117091
								CHANNELS 3 Zrotation Yrotation Xrotation
								End Site
								{
									OFFSET 0.000000 0.000000 0.000000
								}
							}
						}
					}
				}
				JOINT RightShoulder
				{
					OFFSET -8.175920 11.883285 -3.861528
					CHANNELS 3 Zrotation Yrotation Xrotation
					JOINT RightArm
					{
						OFFSET -9.601238 3.255117 -0.914307
						CHANNELS 3 Zrotation Yrotation Xrotation
						JOINT RightForeArm
						{
							OFFSET -25.374195 -1.332924 -2.140099
							CHANNELS 3 Zrotation Yrotation Xrotation
							JOINT RightHand
							{
								OFFSET -25.529810 0.777228 -0.555919
								CHANNELS 3 Zrotation Yrotation Xrotation
								End Site
								{
									OFFSET 0.000000 0.000000 0.000000
								}
							}
						}
					}
				}
			}
		}
	}
}
MOTION
Frames: 9
Frame Time: 0.033333
-36.085785 39.328697 10.057775 178.982889 -3.614717 178.799055 -1.996699 -11.668869 4.164327 -2.901703 -26.163388 10.677337 4.796652 14.085108 -28.172634 nan nan nan 1.088702 2.219258 4.119440 4.193894 6.567648 7.709378 4.799291 -8.127298 -20.807191 nan nan nan -1.375686 1.093306 -7.133191 1.654163 -3.399023 -0.124194 -0.028190 -0.813795 -5.263916 4.761221 -10.078361 -23.928503 10.234118 -3.204466 -26.567384 -11.349907 4.235755 2.696191 -35.652337 8.613679 9.977133 173.987193 -64.125824 -136.983347 8.389361 -24.866577 0.838091 4.620801 -3.389871 -0.287211 34.305527 -8.859000 0.731381 169.041369 57.108117 -156.254075 -12.963914 23.981876 -9.414262 
-36.099762 39.342739 10.058499 179.038158 -3.617346 178.893913 -2.024518 -11.722522 4.015847 -2.781905 -26.020083 10.811500 4.844689 14.102705 -28.247255 nan nan nan 1.143511 2.226401 4.026082 4.170296 6.468229 7.641235 4.454133 -8.147517 -20.615076 nan nan nan -1.183182 1.053562 -7.211529 1.597201 -3.424676 -0.200796 -0.098283 -0.806485 -5.442972 4.740344 -10.126491 -23.421558 10.341034 -3.246575 -26.658091 -11.886574 4.276938 2.792141 -34.833567 8.752424 9.796171 174.204556 -63.989672 -137.093161 7.262389 -24.744637 2.291025 4.899074 -3.279476 0.067754 34.055111 -9.026684 0.359714 169.523550 57.208794 -155.740124 -11.821314 23.815679 -8.290610 
-36.099316 39.348980 10.045004 179.073148 -3.609392 178.879625 -1.976015 -11.640040 4.055134 -2.789277 -25.982025 10.786918 4.815631 14.048381 -28.347018 nan nan nan 1.147090 2.279079 4.094472 4.264521 6.554912 7.573841 4.433308 -7.983378 -20.649568 nan nan nan -1.113239 1.026224 -7.239274 1.572158 -3.438815 -0.258282 -0.105026 -0.813080 -5.479150 4.727349 -10.089004 -23.138056 10.385383 -3.204494 -26.778554 -12.023209 4.230037 2.801546 -34.621573 8.907287 9.740238 174.022242 -63.935037 -137.100721 7.267818 -24.959873 2.192723 4.878142 -3.105124 0.165696 34.025531 -9.086569 0.381645 169.204091 57.195176 -156.208399 -11.760579 24.023696 -8.604622 
-36.103683 39.350658 10.052880 179.111466 -3.599800 178.896870 -1.919289 -11.634265 4.052138 -2.812377 -26.010991 10.754851 4.793267 13.985719 -28.453962 nan nan nan 1.137190 2.362318 4.093868 4.405034 6.700257 7.560821 4.537828 -7.744855 -20.659753 nan nan nan -1.064639 1.017680 -7.241186 1.572204 -3.434911 -0.355846 -0.098148 -0.809316 -5.478665 4.683889 -10.054354 -23.028943 10.403496 -3.127315 -26.839873 -12.084730 4.184286 2.784743 -34.619148 9.043036 9.820081 174.051248 -64.020580 -137.213433 7.430956 -25.236729 1.843042 4.837145 -3.014351 0.169945 33.947634 -9.122251 0.409454 168.887350 57.107856 -156.599386 -11.900410 24.292530 -9.042469 
-36.124096 39.356571 10.096983 179.197171 -3.727277 179.001776 -1.966136 -12.058494 4.024111 -2.732035 -26.419418 10.745807 5.233385 12.998899 -24.725211 nan nan nan 1.164341 2.804411 4.022302 4.867206 7.292859 7.952895 5.504772 -7.290888 -25.818064 nan nan nan -0.712037 1.059346 -7.240676 1.181036 -3.528090 -0.466882 -0.042262 -0.803714 -5.785345 4.224917 -10.478968 -22.376073 10.957128 -2.938721 -26.850638 -11.793405 3.758604 3.051338 -35.028527 9.586779 9.747183 174.725644 -64.604047 -136.565290 7.685541 -25.257409 3.489707 4.340696 -2.852409 0.541348 34.761699 -9.395797 0.328762 169.034066 57.019257 -155.970010 -12.251616 24.917173 -8.621775 
-36.169331 39.412498 10.164501 179.001075 -4.025494 179.089832 -2.519904 -12.858960 4.729289 -1.807720 -25.984986 9.513102 5.941701 12.343143 -23.220510 nan nan nan 0.996171 3.165087 3.890578 4.603637 6.081320 7.969438 6.405490 -5.812590 -25.974751 nan nan nan -0.579834 1.094490 -7.087347 0.833398 -3.397009 -1.564203 -0.289061 -0.421107 -5.290476 3.229698 -12.253183 -20.443320 12.245291 -2.486796 -28.004753 -12.368390 1.710373 4.370131 -35.420234 12.056990 12.386792 169.120378 -60.450358 -134.651489 60.398785 -28.166286 -26.057271 3.014421 -2.596100 0.297115 37.392205 -11.758067 0.592993 169.226205 56.219366 -157.359234 -61.131734 29.858302 -21.062253 
-36.180614 39.409161 10.191215 179.031275 -4.037534 179.127598 -2.479770 -12.930876 4.711510 -1.818416 -26.085569 9.524620 5.940490 12.083059 -22.978132 nan nan nan 1.145808 3.178838 3.790536 4.416653 6.099780 8.092824 6.309013 -5.853628 -25.858795 nan nan nan -0.645517 1.076688 -6.992538 0.907989 -3.355201 -1.789806 -0.229968 -0.399128 -5.189709 3.134632 -12.280510 -20.464394 12.223346 -2.460643 -27.968499 -12.143124 1.850877 4.276292 -35.685933 11.838376 12.389770 169.914182 -60.517540 -135.382512 61.478181 -27.658229 -26.198139 2.950456 -2.801485 0.334132 37.378168 -11.455759 0.478587 168.860379 56.078877 -157.967097 -62.257569 29.714937 -21.076078 
-36.212257 39.412895 10.226737 178.978663 -4.107632 179.174726 -2.478549 -12.848407 4.620198 -1.900469 -26.153006 9.532091 5.950096 12.037895 -22.923427 nan nan nan 1.053114 3.122198 3.737337 4.421694 5.996753 8.155414 6.379017 -5.930224 -25.937654 nan nan nan -0.686523 1.024246 -6.982684 0.880831 -3.361245 -1.915769 -0.238776 -0.390216 -5.063525 3.153446 -12.304509 -20.527853 12.200380 -2.395896 -28.022699 -12.045175 1.923289 4.299300 -35.935481 11.708264 12.217597 170.027752 -60.464192 -135.413667 60.882974 -27.570503 -25.855859 2.910677 -2.882624 0.433708 37.533532 -11.261238 0.254322 168.685923 56.043579 -157.940377 -61.688542 29.642980 -20.291939 
-36.263908 39.419174 10.264944 178.879103 -4.230822 179.230027 -2.394340 -12.562567 4.444440 -2.149098 -26.220980 9.557554 5.933765 11.958170 -23.072906 nan nan nan 0.875011 2.971000 3.672130 4.420439 5.779679 8.216014 6.541454 -6.105084 -26.119634 nan nan nan -0.779036 0.926653 -6.969442 0.854173 -3.397165 -2.092603 -0.238111 -0.414504 -4.916556 3.220024 -12.243281 -20.521719 12.170166 -2.309051 -28.121271 -11.962957 1.993656 4.241046 -36.182178 11.609151 12.053424 170.256402 -60.444391 -135.467863 60.821077 -27.501115 -25.750126 2.898450 -2.874086 0.503344 37.662104 -11.132742 0.164714 168.539287 56.080727 -157.948831 -61.702178 29.463037 -20.138056 
